# xmcd
#
# Track frame offsets:
#	150
#	11947
#	22405
#	31337
#	46672
#	59595
#	70360
#	85282
#	97582
#	109947
#	123390
#	134757
#	148007
#	160767
#
# Disc length: 2287 seconds
#
# Revision: 1
# Processed by: cddbd v1.5.2PL0 Copyright (c) Steve Scherf et al.
# Submitted via: EZCDAudioConverter 8.0.2.1
#
DISCID=c808ed0e
DTITLE=SOLEVANTE and SOLENY - BIS SERTANEJO CD 1 [CD 528152 2)
DYEAR=2000
DGENRE=SERTANEJO
TTITLE0=TIMBÓ COM FUMO (BY GILMAR SINISTRO)
TTITLE1=QUEM AMA SENTE SAUDADE (BY GILMAR SINISTRO)
TTITLE2=DOR DE COTOVELO (BY GILMAR SINISTRO)
TTITLE3=ESPERANÇA PERDIDA (PART. ESP. MARTELINHO) (BY GILMAR SINISTRO)
TTITLE4=MINEIRO VALENTE (BY GILMAR SINISTRO)
TTITLE5=SETE MULHERES PRA MIM (BY GILMAR SINISTRO)
TTITLE6=CORAÇÃO QUE DÓI E DÓI (BY GILMAR SINISTRO)
TTITLE7=MATRIZ E FILIAL (PART. ESP. ELIAS FILHO) (BY GILMAR SINISTRO)
TTITLE8=NOITE TRISTE (BY GILMAR SINISTRO)
TTITLE9=NÃO POSSO CASAR CONTIGO (BY GILMAR SINISTRO)
TTITLE10=AMIGA (BY GILMAR SINISTRO)
TTITLE11=MALDITO BILHETE (BY GILMAR SINISTRO)
TTITLE12=O BODOQUE (BY GILMAR SINISTRO)
TTITLE13=NÃO TE DEIXO NUNCA MAIS (BY DJ GILMAR SINISTRO)
EXTD=
EXTT0=
EXTT1=
EXTT2=
EXTT3=
EXTT4=
EXTT5=
EXTT6=
EXTT7=
EXTT8=
EXTT9=
EXTT10=
EXTT11=
EXTT12=
EXTT13=
PLAYORDER=
